<svg width="15" height="15" viewBox="0 0 15 15" fill="none" xmlns="http://www.w3.org/2000/svg">
<path fill-rule="evenodd" clip-rule="evenodd" d="M3 1H11.2636C12.3681 1 13.2636 1.89543 13.2636 3V4.03412H1V3C1 1.89543 1.89543 1 3 1ZM1 5.03412V11.2636C1 12.3681 1.89543 13.2636 3 13.2636H11.2636C12.3681 13.2636 13.2636 12.3681 13.2636 11.2636V5.03412H1ZM0 3C0 1.34314 1.34315 0 3 0H11.2636C12.9204 0 14.2636 1.34315 14.2636 3V11.2636C14.2636 12.9204 12.9204 14.2636 11.2636 14.2636H3C1.34314 14.2636 0 12.9204 0 11.2636V3Z" fill="white"/>
</svg>
