<svg width="32" height="32" viewBox="0 0 32 32" fill="none" xmlns="http://www.w3.org/2000/svg">
<path fill-rule="evenodd" clip-rule="evenodd" d="M15 18V22H8.79656C8.44955 20.7621 8.20403 19.4192 8.08389 18H15ZM9.48065 24H15V29.8821C13.4815 29.525 11.9345 28.349 10.6249 26.2537C10.2018 25.5766 9.8171 24.8215 9.48065 24ZM6.07737 18C6.18627 19.3973 6.40777 20.7386 6.7269 22H3.34726C2.75658 20.7566 2.34379 19.4123 2.14178 18H6.07737ZM7.33782 24H4.50938C5.85577 25.9303 7.67611 27.5053 9.8017 28.5566C8.81164 27.3038 7.97326 25.7576 7.33782 24ZM22.5194 24H17V29.8821C18.5185 29.525 20.0655 28.349 21.3751 26.2537C21.7982 25.5766 22.1829 24.8215 22.5194 24ZM17 22H23.2034C23.5505 20.7621 23.796 19.4192 23.9161 18H17V22ZM22.1983 28.5566C23.1884 27.3038 24.0267 25.7576 24.6622 24H27.4906C26.1442 25.9303 24.3239 27.5053 22.1983 28.5566ZM25.2731 22H28.6527C29.2434 20.7566 29.6562 19.4123 29.8582 18H25.9226C25.8137 19.3973 25.5922 20.7386 25.2731 22ZM24 16L17 16V11H23.4562C23.8051 12.5438 24 14.2268 24 16ZM22.8936 9H17V2.11787C18.5185 2.47499 20.0655 3.65099 21.3751 5.74629C21.9648 6.68981 22.4797 7.78486 22.8936 9ZM24.9947 9C24.3327 6.82654 23.3721 4.92877 22.1983 3.44339C24.6803 4.6709 26.746 6.61262 28.127 9L24.9947 9ZM25.502 11H29.0807C29.6746 12.5528 30 14.2384 30 16H26C26 14.2539 25.8252 12.5731 25.502 11ZM15 9V2.11787C13.4815 2.47499 11.9345 3.65099 10.6249 5.74629C10.0352 6.68981 9.52032 7.78486 9.10643 9H15ZM15 11H8.54381C8.19487 12.5438 8 14.2268 8 16L15 16V11ZM6.49797 11C6.17482 12.5731 6 14.2539 6 16H2C2 14.2384 2.32536 12.5528 2.91926 11H6.49797ZM7.00529 9L3.87295 9C5.25398 6.61262 7.31974 4.6709 9.8017 3.44339C8.62787 4.92877 7.66725 6.82655 7.00529 9ZM0.123787 18C1.10798 25.8926 7.84076 32 16 32C24.8366 32 32 24.8366 32 16C32 7.16344 24.8366 0 16 0C7.16344 0 0 7.16344 0 16V18H0.123787Z" fill="#F1E6E1"/>
</svg>
