<svg width="349" height="349" viewBox="0 0 349 349" fill="none" xmlns="http://www.w3.org/2000/svg">
<path d="M174.498 166.279C169.956 166.279 166.277 169.958 166.277 174.5C166.277 179.042 169.956 182.721 174.498 182.721C179.04 182.721 182.719 179.042 182.719 174.5C182.719 169.958 179.04 166.279 174.498 166.279ZM174.498 177.927C172.605 177.927 171.071 176.393 171.071 174.5C171.071 172.606 172.605 171.072 174.498 171.072C176.392 171.072 177.926 172.606 177.926 174.5C177.926 176.393 176.392 177.927 174.498 177.927Z" fill="#0F1820"/>
<path d="M189.311 178.898C188.424 178.898 187.597 179.402 187.232 180.21C186.662 181.487 185.907 182.661 184.991 183.692C184.589 184.159 184.152 184.597 183.684 184.998C182.648 185.909 181.479 186.67 180.203 187.239C179.394 187.599 178.891 188.432 178.891 189.318V216.265C178.891 217.679 180.161 218.745 181.557 218.524C182.27 218.41 182.983 218.278 183.684 218.134C200.935 214.521 214.507 200.949 218.12 183.698C218.27 182.997 218.402 182.284 218.51 181.571C218.732 180.174 217.665 178.904 216.251 178.904H189.305L189.311 178.898ZM183.69 212.831V191.02C183.69 190.912 183.744 190.816 183.84 190.762C186.716 189.109 189.107 186.718 190.761 183.842C190.815 183.752 190.911 183.692 191.019 183.692H212.83C213.027 183.692 213.171 183.878 213.123 184.069C209.6 198.36 198.359 209.607 184.068 213.125C183.876 213.173 183.69 213.023 183.69 212.831Z" fill="#0F1820"/>
<path d="M165.31 184.998C164.843 184.597 164.405 184.159 164.004 183.692C163.093 182.661 162.332 181.487 161.763 180.21C161.403 179.402 160.57 178.898 159.684 178.898H132.737C131.323 178.898 130.257 180.169 130.478 181.565C130.592 182.278 130.724 182.991 130.868 183.692C134.481 200.943 148.053 214.515 165.304 218.128C166.005 218.278 166.718 218.41 167.431 218.518C168.827 218.739 170.098 217.673 170.098 216.259V189.312C170.098 188.426 169.594 187.599 168.786 187.233C167.509 186.664 166.335 185.909 165.304 184.992L165.31 184.998ZM164.933 213.125C150.642 209.601 139.395 198.36 135.877 184.069C135.829 183.878 135.979 183.692 136.171 183.692H157.982C158.09 183.692 158.186 183.746 158.24 183.842C159.893 186.718 162.284 189.109 165.16 190.762C165.25 190.816 165.31 190.912 165.31 191.02V212.831C165.31 213.029 165.124 213.173 164.933 213.125Z" fill="#0F1820"/>
<path d="M218.128 165.308C214.515 148.057 200.943 134.485 183.692 130.872C182.991 130.722 182.278 130.59 181.565 130.483C180.169 130.261 178.898 131.327 178.898 132.742V159.7C178.898 160.617 179.456 161.425 180.295 161.803C181.223 162.228 182.098 162.75 182.907 163.361C183.177 163.565 183.44 163.774 183.692 164.002C184.159 164.404 184.597 164.841 184.998 165.308C185.909 166.339 186.67 167.513 187.239 168.79C187.599 169.599 188.432 170.102 189.319 170.102H216.265C217.679 170.102 218.745 168.832 218.524 167.435C218.41 166.722 218.278 166.009 218.134 165.308H218.128ZM190.763 165.159C189.109 162.282 186.718 159.892 183.842 158.238C183.752 158.184 183.692 158.088 183.692 157.98V136.169C183.692 135.971 183.878 135.828 184.07 135.875C198.361 139.399 209.608 150.64 213.125 164.931C213.173 165.123 213.023 165.308 212.831 165.308H191.02C190.912 165.308 190.817 165.254 190.763 165.159Z" fill="#0F1820"/>
<path d="M165.308 130.872C148.057 134.485 134.485 148.057 130.872 165.308C130.722 166.009 130.59 166.722 130.482 167.435C130.261 168.832 131.327 170.102 132.741 170.102H159.688C160.574 170.102 161.401 169.599 161.767 168.79C162.336 167.513 163.091 166.339 164.008 165.308C164.409 164.841 164.847 164.404 165.314 164.002C165.566 163.774 165.829 163.565 166.099 163.361C166.908 162.75 167.783 162.222 168.712 161.803C169.55 161.425 170.108 160.617 170.108 159.7V132.742C170.108 131.327 168.837 130.261 167.441 130.483C166.728 130.596 166.015 130.728 165.314 130.872H165.308ZM157.986 165.308H136.175C135.977 165.308 135.833 165.123 135.881 164.931C139.405 150.64 150.646 139.393 164.937 135.875C165.128 135.828 165.314 135.977 165.314 136.169V157.98C165.314 158.088 165.26 158.184 165.164 158.238C162.288 159.892 159.897 162.282 158.243 165.159C158.19 165.248 158.094 165.308 157.986 165.308Z" fill="#0F1820"/>
<path d="M174.5 113.98C141.076 113.98 113.98 141.076 113.98 174.5C113.98 207.924 141.076 235.02 174.5 235.02C207.924 235.02 235.02 207.924 235.02 174.5C235.02 141.076 207.924 113.98 174.5 113.98ZM174.5 230.226C143.725 230.226 118.774 205.275 118.774 174.5C118.774 143.725 143.725 118.774 174.5 118.774C205.275 118.774 230.226 143.725 230.226 174.5C230.226 205.275 205.275 230.226 174.5 230.226Z" fill="#0F1820"/>
<path d="M174.5 0C78.1241 0 0 78.1241 0 174.5C0 270.876 78.1241 349 174.5 349C270.876 349 349 270.876 349 174.5C349 78.1241 270.876 0 174.5 0ZM174.5 345.339C80.1494 345.339 3.66113 268.851 3.66113 174.5C3.66113 80.1494 80.1494 3.66113 174.5 3.66113C268.851 3.66113 345.339 80.1494 345.339 174.5C345.339 268.851 268.851 345.339 174.5 345.339Z" fill="#0F1820"/>
<path d="M152.084 40.3623L149.98 48.3017L156.602 47.2052L152.084 40.3623Z" fill="#0F1820"/>
<path d="M221.802 46.9775L216.031 52.8258L222.323 55.1627L221.802 46.9775Z" fill="#0F1820"/>
<path d="M85.0652 268.671L83.6631 267.359L77.7969 273.62L78.7556 274.519C81.2123 276.826 83.4713 276.88 85.5266 274.693C86.4434 273.716 86.8568 272.71 86.7669 271.685C86.6771 270.654 86.1138 269.654 85.0712 268.677L85.0652 268.671Z" fill="#0F1820"/>
<path d="M121.347 300.213L121.359 295.198L117.668 298.589L121.347 300.213Z" fill="#0F1820"/>
<path d="M174.501 8.95215C83.0686 8.95215 8.95312 83.0676 8.95312 174.5C8.95312 265.932 83.0686 340.048 174.501 340.048C265.933 340.048 340.049 265.932 340.049 174.5C340.049 83.0676 265.933 8.95215 174.501 8.95215ZM225.164 37.5102L225.463 37.624L228.729 66.7873L228.465 66.991L222.971 64.9537L222.707 60.7653L212.089 56.8225L209.123 59.8125L203.766 57.8232L203.664 57.4816L225.164 37.5102ZM192.885 45.6354C192.645 45.4616 191.806 44.8864 190.362 43.9217C186.887 41.5967 185.347 39.0022 185.748 36.144C186.066 33.873 187.084 32.1773 188.804 31.0687C190.524 29.9602 192.591 29.5707 195.006 29.9063C198.403 30.3797 200.95 32.0155 202.64 34.8078L197.948 38.1334C196.845 36.4496 195.563 35.5088 194.113 35.3051C193.412 35.2092 192.807 35.2991 192.303 35.5748C191.8 35.8504 191.506 36.2938 191.417 36.905C191.369 37.2345 191.417 37.5461 191.554 37.8397C191.692 38.1334 191.968 38.4629 192.381 38.8344C192.795 39.2059 193.172 39.5115 193.508 39.7632C193.843 40.0149 194.395 40.3983 195.156 40.9256C195.917 41.4529 196.504 41.8604 196.917 42.16C200.225 44.5089 201.663 47.1813 201.243 50.1833C200.932 52.4124 199.901 54.1261 198.14 55.3245C196.384 56.5229 194.167 56.9364 191.494 56.5648C189.433 56.2772 187.654 55.6241 186.156 54.5995C184.664 53.5808 183.489 52.3285 182.644 50.8484L187.342 47.4869C188.576 49.5961 190.236 50.7945 192.327 51.0881C193.22 51.214 193.963 51.0941 194.562 50.7346C195.162 50.3751 195.503 49.8777 195.593 49.2486C195.731 48.2659 194.82 47.0615 192.873 45.6414L192.885 45.6354ZM172.715 50.9383C173.231 50.441 173.872 50.1953 174.627 50.2073C175.406 50.2193 176.041 50.465 176.532 50.9503C177.024 51.4297 177.263 52.0289 177.251 52.7359C177.239 53.5149 176.982 54.1501 176.472 54.6414C175.969 55.1328 175.322 55.3664 174.543 55.3545C173.764 55.3425 173.129 55.0908 172.637 54.5935C172.146 54.1021 171.912 53.4969 171.918 52.7899C171.93 52.0588 172.194 51.4417 172.709 50.9383H172.715ZM150.299 30.4755L150.617 30.4216L167.934 54.1081L167.808 54.4197L162.026 55.3784L159.719 51.8731L148.544 53.7246L147.453 57.7932L141.814 58.728L141.557 58.4823L150.299 30.4695V30.4755ZM118.793 39.895L126.409 58.8718L136.164 54.959L138.267 60.196L123.209 66.236L113.49 42.0162L118.793 39.889V39.895ZM77.1964 276.448L74.2723 273.71L83.524 263.841L86.9694 267.071C88.4135 268.425 89.1984 269.947 89.3243 271.631C89.4501 273.315 88.8209 274.897 87.4428 276.365C85.8788 278.036 84.1831 278.845 82.3675 278.803C80.5459 278.755 78.8262 277.976 77.2024 276.454L77.1964 276.448ZM95.7597 285.113L92.0566 282.327L90.3729 284.568L94.813 287.905L93.3689 289.823L86.9215 284.975L95.0527 274.166L101.5 279.013L100.056 280.931L95.6159 277.593L93.4288 280.499L97.1319 283.285L95.7537 285.113H95.7597ZM106.24 297.373C105.191 297.235 104.119 296.845 103.034 296.198C101.32 295.18 100.242 293.771 99.7983 291.974C99.3549 290.176 99.6426 288.415 100.661 286.701C101.674 284.999 103.076 283.909 104.88 283.441C106.683 282.974 108.433 283.243 110.135 284.25C111.848 285.269 112.933 286.761 113.394 288.738L110.956 289.307C110.68 288.013 109.979 287.036 108.858 286.371C107.792 285.736 106.677 285.586 105.527 285.91C104.376 286.233 103.483 286.935 102.848 288.001C102.201 289.092 102.015 290.218 102.291 291.381C102.567 292.543 103.232 293.442 104.292 294.071C105.443 294.754 106.551 295.036 107.618 294.904L108.607 293.238L105.784 291.56L106.953 289.589L111.776 292.453L108.954 297.217C108.199 297.457 107.294 297.505 106.246 297.373H106.24ZM123.707 306.157L121.34 305.114V302.718L115.809 300.279L114.047 301.903L111.734 300.884L111.705 300.728L123.173 290.943L123.323 291.009L123.838 306.079L123.701 306.163L123.707 306.157ZM133.15 299.566C133.228 299.722 133.306 299.859 133.378 299.979C133.45 300.099 133.575 300.261 133.755 300.459C133.935 300.656 134.085 300.818 134.193 300.932C134.306 301.046 134.486 301.232 134.732 301.483C134.978 301.735 135.175 301.933 135.313 302.064C136.847 303.64 137.38 305.168 136.907 306.642C136.571 307.697 135.918 308.452 134.954 308.901C133.989 309.357 132.88 309.381 131.628 308.979C130.645 308.662 129.824 308.182 129.165 307.541C128.506 306.9 128.027 306.187 127.739 305.408L130.022 304.276C130.537 305.528 131.334 306.325 132.413 306.672C132.904 306.828 133.354 306.828 133.749 306.666C134.151 306.505 134.414 306.229 134.534 305.845C134.636 305.528 134.576 305.162 134.354 304.743C134.133 304.323 133.893 303.982 133.641 303.712C133.384 303.443 133 303.053 132.479 302.538C130.825 300.938 130.22 299.422 130.675 298.008C131.023 296.917 131.67 296.174 132.605 295.767C133.539 295.365 134.588 295.347 135.751 295.719C137.32 296.222 138.405 297.211 139.004 298.679L136.751 299.781C136.284 298.829 135.679 298.236 134.942 298.002C134.522 297.864 134.133 297.864 133.785 297.99C133.432 298.116 133.198 298.373 133.072 298.763C133.03 298.889 133.012 299.02 133.024 299.152C133.036 299.284 133.078 299.428 133.156 299.584L133.15 299.566ZM144.852 302.46C144.876 302.592 144.93 302.73 145.026 302.873C145.122 303.017 145.206 303.149 145.29 303.263C145.374 303.377 145.512 303.521 145.715 303.706C145.913 303.886 146.075 304.03 146.201 304.132C146.32 304.234 146.518 304.401 146.788 304.629C147.058 304.857 147.267 305.036 147.417 305.156C149.095 306.582 149.766 308.05 149.436 309.566C149.197 310.645 148.621 311.46 147.705 311.999C146.788 312.539 145.685 312.67 144.397 312.389C143.39 312.167 142.522 311.766 141.808 311.19C141.089 310.609 140.55 309.95 140.185 309.201L142.348 307.859C142.977 309.057 143.846 309.776 144.954 310.016C145.458 310.124 145.901 310.082 146.285 309.884C146.668 309.686 146.902 309.387 146.992 308.991C147.064 308.668 146.968 308.308 146.71 307.907C146.452 307.511 146.183 307.188 145.901 306.948C145.619 306.702 145.2 306.349 144.631 305.887C142.833 304.449 142.09 302.999 142.408 301.549C142.653 300.429 143.223 299.626 144.115 299.14C145.008 298.655 146.051 298.535 147.243 298.793C148.855 299.146 150.03 300.027 150.767 301.435L148.627 302.742C148.07 301.837 147.411 301.303 146.656 301.136C146.225 301.04 145.841 301.076 145.5 301.232C145.164 301.393 144.948 301.669 144.864 302.064C144.834 302.196 144.834 302.328 144.852 302.46ZM156.135 314.246L153.649 313.899L155.518 300.501L158.005 300.848L156.135 314.246ZM174.267 315.738H174.1L165.249 306.762L164.89 315.151L162.385 315.043L162.978 301.345H163.146L171.996 310.321L172.356 301.933L174.861 302.04L174.267 315.738ZM190.2 314.168C189.265 314.666 188.169 314.965 186.905 315.073C184.921 315.241 183.225 314.72 181.817 313.509C180.409 312.299 179.63 310.705 179.462 308.716C179.295 306.744 179.81 305.042 181.008 303.616C182.207 302.19 183.789 301.393 185.76 301.226C187.743 301.058 189.499 301.645 191.021 302.987L189.361 304.869C188.385 303.976 187.246 303.58 185.946 303.694C184.705 303.796 183.717 304.317 182.968 305.252C182.219 306.187 181.895 307.272 182.003 308.512C182.111 309.776 182.614 310.801 183.513 311.592C184.412 312.383 185.472 312.724 186.701 312.622C188.037 312.509 189.098 312.095 189.895 311.376L189.733 309.447L186.461 309.722L186.269 307.439L191.86 306.972L192.321 312.491C191.842 313.126 191.141 313.689 190.206 314.186L190.2 314.168ZM211.544 310.699L211.382 310.741L201.639 299.326L201.687 299.158L204.287 298.457L210.208 305.839L211.52 296.498L214.066 295.809L214.168 295.917L211.538 310.699H211.544ZM232.114 303.317L229.712 304.264L228.016 302.568L222.383 304.785L222.293 307.182L219.939 308.104L219.807 308.021L220.933 292.987L221.089 292.927L232.156 303.173L232.12 303.329L232.114 303.317ZM236.465 301.16L230.203 289.17L232.426 288.007L237.543 297.804L242.547 295.192L243.691 297.385L236.459 301.16H236.465ZM250.798 293.226L238.053 285.305V285.131L240.318 283.669L248.197 288.912L246.615 279.612L248.832 278.18L248.964 278.252L250.941 293.136L250.804 293.226H250.798ZM259.774 286.773L251.307 276.221L257.599 271.176L259.103 273.045L254.77 276.52L257.047 279.355L260.66 276.454L262.093 278.24L258.479 281.14L260.235 283.327L264.567 279.852L266.071 281.721L259.78 286.767L259.774 286.773ZM274.328 272.745C274.274 273.812 273.771 274.801 272.824 275.717C272.081 276.437 271.272 276.934 270.392 277.209C269.511 277.485 268.66 277.569 267.839 277.461L267.917 274.915C269.265 275.046 270.344 274.723 271.159 273.938C271.53 273.578 271.74 273.183 271.782 272.751C271.83 272.32 271.71 271.96 271.428 271.667C271.194 271.427 270.847 271.307 270.368 271.301C269.894 271.301 269.475 271.343 269.121 271.445C268.762 271.547 268.234 271.703 267.533 271.919C265.34 272.62 263.722 272.44 262.686 271.373C261.889 270.552 261.535 269.63 261.619 268.617C261.703 267.604 262.188 266.67 263.057 265.819C264.244 264.674 265.622 264.183 267.204 264.345L267.114 266.849C266.053 266.813 265.244 267.065 264.687 267.604C264.37 267.91 264.184 268.251 264.13 268.623C264.076 268.994 264.19 269.324 264.471 269.612C264.567 269.707 264.675 269.785 264.795 269.839C264.915 269.893 265.065 269.923 265.238 269.923C265.412 269.923 265.568 269.923 265.706 269.923C265.844 269.923 266.047 269.881 266.305 269.815C266.569 269.749 266.772 269.695 266.928 269.648C267.078 269.6 267.33 269.528 267.671 269.432C268.013 269.33 268.276 269.252 268.456 269.198C270.571 268.587 272.171 268.839 273.25 269.953C274.023 270.75 274.376 271.679 274.322 272.745H274.328ZM174.501 276.922C117.936 276.922 72.0852 231.071 72.0852 174.506C72.0852 117.941 117.936 72.0902 174.501 72.0902C231.066 72.0902 276.917 117.941 276.917 174.506C276.917 231.071 231.066 276.922 174.501 276.922Z" fill="#0F1820"/>
<path d="M222.678 297.265L222.492 302.274L226.231 300.806L222.678 297.265Z" fill="#0F1820"/>
</svg>
